<svg width="2480" height="2480" xmlns="http://www.w3.org/2000/svg" xmlns:svg="http://www.w3.org/2000/svg" clip-rule="evenodd">
 <g>
  <title>Layer 1</title>
  <rect id="svg_1" fill="rgb(0,47,75)" height="2480" width="2480"/>
  <g id="svg_2" transform="matrix(1.15216,0,0,1.15216,-126.211,-285.172) ">
   <circle id="svg_3" fill="#ffff00" r="1027.35999" cy="1312.90759" cx="1180.34553"/>
  </g>
  <g id="svg_4" transform="matrix(1,0,0,1,-40.1176,-196.361) ">
   <circle id="svg_5" fill="#7f0000" r="102.91" cy="869.80607" cx="725.44511"/>
  </g>
  <g id="svg_6" transform="matrix(1,0,0,1,-68.0255,-196.361) ">
   <rect stroke="#ef7f7f" id="svg_7" fill="#003f7f" height="205.821" width="706.419" y="754.25409" x="997.11516"/>
  </g>
  <g id="svg_8" transform="matrix(-1,0,0,1,3547.99,91.4396) ">
   <circle id="svg_9" fill="#7f0000" r="102.91" cy="896.02646" cx="1977.46889"/>
  </g>
  <g id="svg_10" transform="matrix(-1,0,0,1,3575.9,91.4396) ">
   <rect id="svg_11" fill="#003f7f" height="205.821" width="706.419" y="796.39401" x="2271.61361"/>
  </g>
  <g id="svg_12" transform="matrix(1,0,0,1,-40.1176,379.24) ">
   <circle id="svg_13" fill="#7f0000" r="102.91" cy="938.16638" cx="744.17394"/>
  </g>
  <g id="svg_14" transform="matrix(1,0,0,1,-68.0255,379.24) ">
   <rect id="svg_15" fill="#003f7f" height="205.821" width="706.419" y="837.59748" x="1027.54957"/>
  </g>
  <g id="svg_16" transform="matrix(1.27524,0,0,1.27524,-439.125,-601.672) ">
   <path id="svg_17" fill-rule="nonzero" d="m680.99918,1743.62644l189.17,0l-133.84,242.4l131.2,0l0,37.83l-193.12,0l133.08,-241.96l-126.49,0l0,-38.27z"/>
   <path id="svg_18" fill-rule="nonzero" d="m1091.88918,1940.49644l-154.85,0c3.37,18.62 11.04,32.22 22.99,40.8c11.95,8.58 24.96,12.87 39.04,12.87c21.7,0 39.89,-9.02 54.55,-27.06l27.94,21.12c-20.97,27.13 -49.05,40.69 -84.25,40.69c-26.98,0 -49.56,-9.24 -67.75,-27.71c-18.18,-18.48 -27.27,-41.43 -27.27,-68.85c0,-25.66 9.2,-47.92 27.6,-66.76c18.41,-18.84 40.88,-28.27 67.42,-28.27c26.1,0 48.47,9.57 67.09,28.71c18.62,19.14 27.79,43.96 27.49,74.46zm-150.89,-30.58l110.86,0c-12.32,-24.93 -30.5,-37.39 -54.55,-37.39c-26.25,0 -45.02,12.46 -56.31,37.39z"/>
   <path fill="black" id="svg_19" fill-rule="nonzero" d="m1128.84918,2023.85644l0,-181.47l37.39,0l0,30.14c11,-12.17 20.97,-21.08 29.92,-26.73c8.94,-5.64 18.91,-8.47 29.91,-8.47c16.43,0 30.47,5.43 42.12,16.28c11.66,10.85 17.49,23.9 17.49,39.16l0,131.09l-38.27,0l0,-119.88c0,-9.82 -3.19,-17.96 -9.57,-24.41c-6.38,-6.46 -14.48,-9.68 -24.31,-9.68c-12.75,0 -23.75,5.39 -32.99,16.17c-9.24,10.77 -13.86,23.79 -13.86,39.04l0,98.76l-37.83,0z"/>
   <path id="svg_20" fill-rule="nonzero" d="m1342.42918,1743.62644l37.84,0l0,242.4l91.28,0l0,37.83l-129.12,0l0,-280.23z"/>
   <path id="svg_21" fill-rule="nonzero" d="m1499.48918,1782.77644c0,-7.92 2.93,-14.77 8.79,-20.56c5.87,-5.79 12.83,-8.69 20.9,-8.69c7.92,0 14.77,2.9 20.57,8.69c5.79,5.79 8.69,12.64 8.69,20.56c0,8.07 -2.9,14.96 -8.69,20.68c-5.8,5.72 -12.65,8.58 -20.57,8.58c-8.07,0 -15.03,-2.86 -20.9,-8.58c-5.86,-5.72 -8.79,-12.61 -8.79,-20.68zm10.77,59.61l37.84,0l0,181.47l-37.84,0l0,-181.47z"/>
   <path fill="black" id="svg_22" fill-rule="nonzero" d="m1611.22918,1738.34644l37.83,0l0,139.9c16.28,-27.28 39.59,-40.92 69.95,-40.92c23.46,0 43.81,9.39 61.04,28.16c17.23,18.77 25.84,41.06 25.84,66.87c0,25.81 -8.47,48.35 -25.4,67.64c-16.94,19.28 -36.7,28.92 -59.28,28.92c-14.52,0 -28.3,-3.88 -41.36,-11.66c-13.05,-7.77 -23.31,-18.33 -30.79,-31.67l0,38.27l-37.83,0l0,-285.51zm154.19,194.01c0,-16.57 -5.94,-30.76 -17.82,-42.56c-11.87,-11.81 -26.25,-17.71 -43.11,-17.71c-16.28,0 -30.39,5.97 -42.34,17.93c-11.95,11.95 -17.93,26.06 -17.93,42.34c0,17.01 5.98,31.34 17.93,43c11.95,11.66 26.65,17.49 44.1,17.49c16.13,0 30.03,-5.94 41.68,-17.82c11.66,-11.88 17.49,-26.1 17.49,-42.67z"/>
   <path fill="black" id="svg_23" fill-rule="nonzero" d="m1963.38918,1863.94644l-25.52,22.44c-6.6,-4.7 -12.32,-8.25 -17.16,-10.67c-4.84,-2.42 -10.56,-3.63 -17.15,-3.63c-15.55,0 -23.32,5.72 -23.32,17.16c0,8.21 9.86,16.18 29.58,23.92c19.73,7.73 33.92,16.21 42.57,25.44c8.65,9.23 12.98,20.36 12.98,33.4c0,15.24 -6.24,28.53 -18.7,39.88c-12.46,11.36 -27.13,17.03 -43.99,17.03c-25.67,0 -46.71,-11.88 -63.13,-35.63l30.13,-14.52c10.56,10.27 21.56,15.4 33,15.4c7.91,0 14.84,-2.16 20.78,-6.49c5.94,-4.33 8.91,-9.35 8.91,-15.07c0,-10.12 -10.41,-19.22 -31.23,-27.3c-20.83,-8.08 -35.23,-16.27 -43.23,-24.55c-7.99,-8.28 -11.98,-18.5 -11.98,-30.67c0,-15.09 5.68,-27.66 17.04,-37.7c11.37,-10.04 25.63,-15.06 42.79,-15.06c17.15,0 36.36,8.88 57.63,26.62z"/>
  </g>
 </g>
</svg>